<svg xmlns="http://www.w3.org/2000/svg" viewBox="0 0 64 64" fill="none">
  <defs>
    <radialGradient id="splashBase" cx="0.32" cy="0.22" r="0.95">
      <stop offset="0%" stop-color="#bef264"/>
      <stop offset="55%" stop-color="#84cc16"/>
      <stop offset="100%" stop-color="#4d7c0f"/>
    </radialGradient>
    <linearGradient id="splashEdge" x1="0" y1="0" x2="1" y2="1">
      <stop offset="0%" stop-color="#d9f99d"/>
      <stop offset="50%" stop-color="#84cc16"/>
      <stop offset="100%" stop-color="#365314"/>
    </linearGradient>
  </defs>
  <!-- cannabis leaf splash badge -->
  <path d="M32 6C35.1 10.9 38.3 13.6 42.2 12.2C40.8 16 43.9 19.2 50 21C46.4 24.2 46.4 28.8 51 33C46.2 35.1 44.1 40 46 46C40.9 45.3 37.9 48.1 36 54C34.1 50 33 46.8 32 44.2C31 46.8 29.9 50 28 54C26.1 48.1 23.1 45.3 18 46C19.9 40 17.8 35.1 13 33C17.6 28.8 17.6 24.2 14 21C20.1 19.2 23.2 16 21.8 12.2C25.7 13.6 28.9 10.9 32 6Z" fill="url(#splashBase)"/>
  <path d="M32 6C35.1 10.9 38.3 13.6 42.2 12.2C40.8 16 43.9 19.2 50 21C46.4 24.2 46.4 28.8 51 33C46.2 35.1 44.1 40 46 46C40.9 45.3 37.9 48.1 36 54C34.1 50 33 46.8 32 44.2C31 46.8 29.9 50 28 54C26.1 48.1 23.1 45.3 18 46C19.9 40 17.8 35.1 13 33C17.6 28.8 17.6 24.2 14 21C20.1 19.2 23.2 16 21.8 12.2C25.7 13.6 28.9 10.9 32 6Z" fill="none" stroke="url(#splashEdge)" stroke-width="2"/>
  <path d="M25 15C27.8 14.8 30 13.5 32 11C33 12.2 33 13.9 32 15.2C30.6 17 27.9 16.9 25.9 16.5C25 16.3 24.8 15.1 25 15Z" fill="#f7fee7" fill-opacity="0.22"/>
  <path d="M39.8 46C41.7 45.6 43.5 45.8 45.2 46.6C44.4 49.2 43.1 51 41.2 52.6C39.8 53.7 37.8 53 37.3 51.4C36.8 49.8 37.8 47.9 39.8 46Z" fill="#1a2e05" fill-opacity="0.14"/>

  <!-- Minimal people + cannabis accent icon -->
  <g fill="#0b1320" stroke="#0b1320" stroke-linecap="round">
    <!-- 2 people -->
    <circle cx="24" cy="30" r="4" stroke="none"/>
    <circle cx="36" cy="30" r="4" stroke="none"/>

    <!-- small cannabis-style leaf accent -->
    <path d="M45 20.5C44.6 22.1 44.7 23.5 45 25C45.3 23.5 45.4 22.1 45 20.5Z" stroke="none"/>
    <path d="M45 25C43.9 24.2 43.1 23.2 42.6 21.9C43.9 22.3 44.8 23.2 45 25Z" stroke="none"/>
    <path d="M45 25C45.2 23.2 46.1 22.3 47.4 21.9C46.9 23.2 46.1 24.2 45 25Z" stroke="none"/>
    <path d="M45 25.2V28" stroke-width="2.2"/>

    <!-- subtle smile -->
    <path d="M22 39C25 42.5 35 42.5 38 39" fill="none" stroke-width="2.75"/>
  </g>
</svg>
