<svg xmlns="http://www.w3.org/2000/svg" viewBox="0 0 96 96" fill="none">
  <defs>
    <linearGradient id="bg" x1="9" y1="8" x2="87" y2="88" gradientUnits="userSpaceOnUse">
      <stop stop-color="#facc15"/>
      <stop offset="1" stop-color="#65a30d"/>
    </linearGradient>
  </defs>
  <rect width="96" height="96" rx="48" fill="url(#bg)"/>
  <circle cx="48" cy="40" r="21" fill="#f3ccac"/>
  <path d="M23 38c4-12 13-19 25-19s21 7 25 19c-7-3-15-5-25-5s-18 2-25 5Z" fill="#14532d"/>
  <rect x="33" y="40" width="12" height="7" rx="3.5" fill="#14532d"/>
  <rect x="51" y="40" width="12" height="7" rx="3.5" fill="#14532d"/>
  <rect x="45" y="42.5" width="6" height="2" rx="1" fill="#14532d"/>
  <path d="M40 53c4 2.6 12 2.6 16 0" stroke="#7c2d12" stroke-width="2.2" stroke-linecap="round"/>
  <path d="M29 84c4-15 11-23 19-23s15 8 19 23H29Z" fill="#365314"/>
</svg>
