<svg xmlns="http://www.w3.org/2000/svg" viewBox="0 0 96 96" fill="none">
  <defs>
    <linearGradient id="bg" x1="12" y1="10" x2="84" y2="88" gradientUnits="userSpaceOnUse">
      <stop stop-color="#0ea5e9"/>
      <stop offset="1" stop-color="#0f172a"/>
    </linearGradient>
  </defs>
  <rect width="96" height="96" rx="48" fill="url(#bg)"/>
  <path d="M20 84c2-16 11-28 28-28s26 12 28 28H20Z" fill="#0b1220"/>
  <circle cx="48" cy="41" r="19" fill="#f0c3a0"/>
  <path d="M28 37c3-11 11-17 20-17 9 0 17 6 20 17-5-3-13-4-20-4s-15 1-20 4Z" fill="#0f172a"/>
  <circle cx="40.5" cy="42" r="2.4" fill="#111827"/>
  <circle cx="55.5" cy="42" r="2.4" fill="#111827"/>
  <path d="M41 52.5c3.5 2.5 10.5 2.5 14 0" stroke="#7c2d12" stroke-width="2.2" stroke-linecap="round"/>
</svg>
