<svg xmlns="http://www.w3.org/2000/svg" viewBox="0 0 96 96" fill="none">
  <defs>
    <linearGradient id="bg" x1="8" y1="10" x2="86" y2="88" gradientUnits="userSpaceOnUse">
      <stop stop-color="#4ade80"/>
      <stop offset="1" stop-color="#14532d"/>
    </linearGradient>
  </defs>
  <rect width="96" height="96" rx="48" fill="url(#bg)"/>
  <circle cx="48" cy="41" r="21" fill="#f4cfad"/>
  <path d="M23 39c3-12 12-20 25-20s22 8 25 20c-6-3-15-5-25-5s-19 2-25 5Z" fill="#14532d"/>
  <path d="M48 26 52 34 60 35 54 41 56 49 48 45 40 49 42 41 36 35 44 34Z" fill="#84cc16"/>
  <circle cx="40" cy="43" r="2.4" fill="#1f2937"/>
  <circle cx="56" cy="43" r="2.4" fill="#1f2937"/>
  <path d="M40 54c4 2.8 12 2.8 16 0" stroke="#7c2d12" stroke-width="2.2" stroke-linecap="round"/>
  <path d="M29 84c3-15 11-23 19-23s16 8 19 23H29Z" fill="#14532d"/>
</svg>
