<svg xmlns="http://www.w3.org/2000/svg" viewBox="0 0 96 96" fill="none">
  <defs>
    <linearGradient id="bg" x1="10" y1="8" x2="86" y2="88" gradientUnits="userSpaceOnUse">
      <stop stop-color="#34d399"/>
      <stop offset="1" stop-color="#0f766e"/>
    </linearGradient>
  </defs>
  <rect width="96" height="96" rx="48" fill="url(#bg)"/>
  <circle cx="48" cy="41" r="21" fill="#f2caa8"/>
  <path d="M24 40c3-12 12-20 24-20s21 8 24 20c-6-3-14-4-24-4s-18 1-24 4Z" fill="#134e4a"/>
  <circle cx="40.5" cy="43" r="2.4" fill="#1f2937"/>
  <circle cx="55.5" cy="43" r="2.4" fill="#1f2937"/>
  <path d="M41 54c3.5 2.5 10.5 2.5 14 0" stroke="#7c2d12" stroke-width="2.2" stroke-linecap="round"/>
  <path d="M29 84c4-15 11-23 19-23s15 8 19 23H29Z" fill="#0f766e"/>
  <circle cx="73" cy="22" r="2" fill="#99f6e4"/>
</svg>
