<svg xmlns="http://www.w3.org/2000/svg" viewBox="0 0 96 96" fill="none">
  <defs>
    <linearGradient id="bg" x1="8" y1="8" x2="88" y2="90" gradientUnits="userSpaceOnUse">
      <stop stop-color="#22d3ee"/>
      <stop offset="1" stop-color="#db2777"/>
    </linearGradient>
  </defs>
  <rect width="96" height="96" rx="48" fill="url(#bg)"/>
  <circle cx="48" cy="41" r="21" fill="#f3ccac"/>
  <path d="M22 43c2-15 12-24 26-24 12 0 22 7 26 21-6-3-12-5-20-5-12 0-20 4-32 8Z" fill="#6b21a8"/>
  <circle cx="40.5" cy="43" r="2.4" fill="#1f2937"/>
  <circle cx="55.5" cy="43" r="2.4" fill="#1f2937"/>
  <path d="M41 54c3.5 2.5 10.5 2.5 14 0" stroke="#9f1239" stroke-width="2.2" stroke-linecap="round"/>
  <path d="M29 84c4-15 11-23 19-23s15 8 19 23H29Z" fill="#4c1d95"/>
</svg>
