<svg xmlns="http://www.w3.org/2000/svg" viewBox="0 0 96 96" fill="none">
  <defs>
    <linearGradient id="bg" x1="8" y1="8" x2="88" y2="90" gradientUnits="userSpaceOnUse">
      <stop stop-color="#22d3ee"/>
      <stop offset="1" stop-color="#a21caf"/>
    </linearGradient>
  </defs>
  <rect width="96" height="96" rx="48" fill="url(#bg)"/>
  <circle cx="48" cy="40" r="21" fill="#f4cead"/>
  <path d="M24 38c4-12 13-19 24-19s20 7 24 19c-6-4-14-6-24-6s-18 2-24 6Z" fill="#111827"/>
  <rect x="33" y="40" width="12" height="7" rx="3.5" fill="#172554"/>
  <rect x="51" y="40" width="12" height="7" rx="3.5" fill="#172554"/>
  <rect x="45" y="42.5" width="6" height="2" rx="1" fill="#172554"/>
  <path d="M40 53c4 2.5 12 2.5 16 0" stroke="#7c2d12" stroke-width="2.2" stroke-linecap="round"/>
  <path d="M29 84c4-15 11-23 19-23s15 8 19 23H29Z" fill="#312e81"/>
</svg>
