<svg xmlns="http://www.w3.org/2000/svg" viewBox="0 0 96 96" fill="none">
  <defs>
    <linearGradient id="bg" x1="10" y1="8" x2="86" y2="88" gradientUnits="userSpaceOnUse">
      <stop stop-color="#f472b6"/>
      <stop offset="1" stop-color="#4338ca"/>
    </linearGradient>
  </defs>
  <rect width="96" height="96" rx="48" fill="url(#bg)"/>
  <circle cx="48" cy="41" r="21" fill="#f3ccac"/>
  <path d="M22 42c3-14 12-23 26-23 11 0 21 7 25 20-6-3-12-4-19-4-12 0-21 4-32 7Z" fill="#7e22ce"/>
  <circle cx="40" cy="43" r="2.4" fill="#1f2937"/>
  <circle cx="56" cy="43" r="2.4" fill="#1f2937"/>
  <path d="M41 54c4 2.8 10 2.8 14 0" stroke="#9f1239" stroke-width="2.2" stroke-linecap="round"/>
  <path d="M29 84c4-15 11-23 19-23s15 8 19 23H29Z" fill="#4338ca"/>
</svg>
