<svg xmlns="http://www.w3.org/2000/svg" viewBox="0 0 96 96" fill="none">
  <defs>
    <linearGradient id="bg" x1="10" y1="8" x2="86" y2="88" gradientUnits="userSpaceOnUse">
      <stop stop-color="#c084fc"/>
      <stop offset="1" stop-color="#312e81"/>
    </linearGradient>
  </defs>
  <rect width="96" height="96" rx="48" fill="url(#bg)"/>
  <circle cx="48" cy="41" r="21" fill="#f3ccac"/>
  <path d="M23 40c3-13 12-21 25-21s22 8 25 21c-6-3-14-4-25-4s-19 1-25 4Z" fill="#4c1d95"/>
  <circle cx="40" cy="43" r="2.4" fill="#1f2937"/>
  <circle cx="56" cy="43" r="2.4" fill="#1f2937"/>
  <path d="M41 54c4 2.8 10 2.8 14 0" stroke="#9f1239" stroke-width="2.2" stroke-linecap="round"/>
  <path d="M29 84c4-15 11-23 19-23s15 8 19 23H29Z" fill="#3730a3"/>
  <circle cx="70" cy="20" r="2" fill="#c4b5fd"/>
</svg>
