<svg xmlns="http://www.w3.org/2000/svg" viewBox="0 0 96 96" fill="none">
  <defs>
    <linearGradient id="bg" x1="12" y1="10" x2="84" y2="88" gradientUnits="userSpaceOnUse">
      <stop stop-color="#f472b6"/>
      <stop offset="1" stop-color="#7e22ce"/>
    </linearGradient>
  </defs>
  <rect width="96" height="96" rx="48" fill="url(#bg)"/>
  <circle cx="48" cy="40" r="21" fill="#f2c7a5"/>
  <path d="M23 40c3-13 12-21 25-21 13 0 22 8 25 21-7-3-14-4-25-4s-18 1-25 4Z" fill="#5b2132"/>
  <rect x="33" y="40" width="12" height="7" rx="3.5" fill="#111827"/>
  <rect x="51" y="40" width="12" height="7" rx="3.5" fill="#111827"/>
  <rect x="45" y="42.5" width="6" height="2" rx="1" fill="#111827"/>
  <path d="M40 53c4 2.5 12 2.5 16 0" stroke="#9f1239" stroke-width="2.2" stroke-linecap="round"/>
  <path d="M29 84c4-14 12-23 19-23s15 9 19 23H29Z" fill="#581c87"/>
</svg>
