<svg xmlns="http://www.w3.org/2000/svg" viewBox="0 0 96 96" fill="none">
  <defs>
    <linearGradient id="bg" x1="14" y1="10" x2="82" y2="88" gradientUnits="userSpaceOnUse">
      <stop stop-color="#22d3ee"/>
      <stop offset="1" stop-color="#1e3a8a"/>
    </linearGradient>
  </defs>
  <rect width="96" height="96" rx="48" fill="url(#bg)"/>
  <circle cx="48" cy="39" r="22" fill="#f2c6a2"/>
  <path d="M25 37c4-11 13-18 23-18s18 7 23 18c-6-3-15-5-23-5s-17 2-23 5Z" fill="#111827"/>
  <rect x="33" y="40" width="12" height="7" rx="3.5" fill="#0f172a"/>
  <rect x="51" y="40" width="12" height="7" rx="3.5" fill="#0f172a"/>
  <rect x="45" y="42.5" width="6" height="2" rx="1" fill="#0f172a"/>
  <path d="M39 54c4 2.5 14 2.5 18 0" stroke="#7c2d12" stroke-width="2.2" stroke-linecap="round"/>
  <path d="M29 84c4-15 11-24 19-24s15 9 19 24H29Z" fill="#1e293b"/>
</svg>
