<svg xmlns="http://www.w3.org/2000/svg" viewBox="0 0 96 96" fill="none">
  <defs>
    <linearGradient id="bg" x1="10" y1="8" x2="86" y2="88" gradientUnits="userSpaceOnUse">
      <stop stop-color="#fb7185"/>
      <stop offset="1" stop-color="#7c3aed"/>
    </linearGradient>
  </defs>
  <rect width="96" height="96" rx="48" fill="url(#bg)"/>
  <circle cx="48" cy="40" r="21" fill="#f2c8a6"/>
  <path d="M22 41c3-14 12-22 25-22 12 0 21 7 25 20-6-3-12-4-20-4-12 0-20 4-30 6Z" fill="#9f1239"/>
  <circle cx="40" cy="42" r="2.4" fill="#1f2937"/>
  <circle cx="56" cy="42" r="2.4" fill="#1f2937"/>
  <path d="M40 53c4 2.6 12 2.6 16 0" stroke="#7c2d12" stroke-width="2.2" stroke-linecap="round"/>
  <path d="M29 84c4-15 11-24 19-24s15 9 19 24H29Z" fill="#7c3aed"/>
</svg>
