<svg xmlns="http://www.w3.org/2000/svg" viewBox="0 0 1200 630" role="img" aria-label="Tbilisi hemp policy dialogue">
  <defs>
    <linearGradient id="bg" x1="0" y1="0" x2="1" y2="1">
      <stop offset="0%" stop-color="#0b1222"/>
      <stop offset="100%" stop-color="#1a2b14"/>
    </linearGradient>
  </defs>
  <rect width="1200" height="630" fill="url(#bg)"/>
  <circle cx="1050" cy="120" r="180" fill="#84cc16" opacity="0.15"/>
  <circle cx="180" cy="520" r="220" fill="#65a30d" opacity="0.18"/>
  <g fill="#d9f99d" opacity="0.9">
    <path d="M600 360c-38-66-49-124-18-192 46 30 74 79 82 134 8 56-14 107-64 162z"/>
    <path d="M600 360c42-56 84-92 152-104-9 53-35 94-78 122-43 29-92 32-154-18z"/>
    <path d="M600 360c-40-62-82-99-150-113 8 54 33 97 74 128 41 30 89 35 156-15z"/>
  </g>
  <text x="70" y="520" font-family="Arial, sans-serif" font-size="54" fill="#f8fafc" font-weight="700">
    Georgia Hemp Dialogue 2026
  </text>
</svg>
